<?xml version="1.0" standalone="no"?>
<!DOCTYPE svg PUBLIC "-//W3C//DTD SVG 20010904//EN"
 "http://www.w3.org/TR/2001/REC-SVG-20010904/DTD/svg10.dtd">
<svg version="1.0" xmlns="http://www.w3.org/2000/svg"
 width="800.000000pt" height="493.000000pt" viewBox="0 0 800.000000 493.000000"
 preserveAspectRatio="xMidYMid meet">

<g transform="translate(0.000000,493.000000) scale(0.100000,-0.100000)"
fill="#000000" stroke="none">
<path d="M20 3435 c0 -811 2 -1475 5 -1475 3 0 167 81 365 180 l360 180 0
1115 0 1115 -360 180 c-198 99 -362 180 -365 180 -3 0 -5 -664 -5 -1475z"/>
<path d="M7608 4729 l-358 -179 0 -1115 0 -1115 360 -180 c198 -99 362 -180
365 -180 3 0 5 664 5 1475 0 811 -3 1475 -7 1474 -5 0 -169 -81 -365 -180z"/>
<path d="M1885 4339 c-276 -40 -480 -214 -526 -447 -16 -85 -7 -212 21 -286
29 -77 119 -169 215 -218 39 -20 147 -62 240 -93 258 -85 327 -133 328 -232 1
-60 -23 -106 -71 -138 -41 -27 -138 -55 -189 -55 -96 0 -222 51 -294 120 -23
22 -45 40 -48 39 -6 -1 -140 -147 -226 -246 l-39 -46 46 -41 c118 -103 290
-165 489 -173 140 -6 222 4 341 43 233 76 377 275 378 520 1 256 -131 399
-455 494 -288 84 -354 132 -343 249 6 66 48 112 127 142 46 17 72 20 146 17
99 -5 162 -26 226 -78 l36 -29 131 142 131 142 -32 27 c-136 117 -407 180
-632 147z"/>
<path d="M3435 4339 c-232 -29 -451 -142 -585 -302 -190 -225 -256 -573 -169
-888 48 -173 173 -354 313 -453 185 -132 383 -184 660 -173 227 9 412 48 577
124 l79 36 0 448 c0 247 -2 449 -5 449 -3 0 -86 -41 -185 -90 l-180 -90 0
-224 0 -225 -52 -19 c-216 -81 -393 -81 -553 -2 -130 64 -224 174 -268 315
-33 107 -31 281 7 389 60 176 186 296 357 341 72 20 249 19 324 0 70 -19 160
-65 213 -111 l40 -34 128 141 c71 78 130 145 132 149 6 16 -87 83 -173 126
-175 85 -433 121 -660 93z"/>
<path d="M5245 4339 c-411 -56 -703 -328 -771 -721 -22 -123 -14 -330 15 -443
23 -89 83 -220 132 -292 108 -157 298 -281 511 -334 121 -30 319 -37 428 -15
102 21 210 63 285 110 59 38 175 152 175 172 0 6 -70 64 -157 127 l-156 116
-29 -37 c-39 -48 -121 -105 -183 -127 -74 -27 -222 -25 -298 3 -136 49 -254
174 -307 323 -31 88 -39 266 -16 363 39 166 140 296 282 363 72 34 88 38 180
41 146 6 258 -32 333 -112 l23 -24 141 115 c78 64 143 121 145 128 5 22 -120
123 -203 165 -44 22 -116 49 -160 61 -94 23 -269 32 -370 18z"/>
<path d="M6190 3430 l0 -880 215 0 215 0 0 880 0 880 -215 0 -215 0 0 -880z"/>
<path d="M1311 1667 c-48 -15 -99 -69 -107 -114 -10 -53 13 -112 55 -140 18
-12 65 -33 103 -45 86 -28 108 -47 108 -97 0 -54 -34 -83 -102 -89 -45 -3 -59
0 -92 23 l-39 26 -20 -20 c-18 -17 -19 -22 -6 -37 22 -27 90 -54 138 -54 65 0
116 19 152 56 28 29 33 43 37 94 4 59 4 61 -34 99 -29 28 -59 45 -113 62 -40
13 -84 34 -97 46 -41 38 -28 100 26 128 41 21 86 19 131 -7 38 -21 39 -21 59
-3 l20 18 -21 23 c-36 39 -129 53 -198 31z"/>
<path d="M3972 1662 c-147 -53 -218 -200 -173 -357 21 -71 98 -148 170 -169
75 -22 154 -20 231 7 l65 22 3 133 3 132 -96 0 -95 0 0 -30 0 -30 60 0 60 0 0
-83 0 -84 -39 -11 c-167 -50 -305 44 -305 208 0 101 36 159 124 199 64 29 117
27 183 -8 54 -28 56 -29 72 -10 25 26 12 47 -42 71 -66 29 -155 33 -221 10z"/>
<path d="M1950 1641 c-16 -31 4 -63 37 -59 34 4 52 32 37 56 -16 26 -60 28
-74 3z"/>
<path d="M4750 1530 l0 -50 -40 0 c-36 0 -40 -2 -40 -25 0 -22 4 -25 40 -25
l40 0 0 -128 c0 -98 4 -133 15 -149 18 -25 69 -38 114 -28 25 5 31 12 31 34 0
25 -3 27 -35 23 -59 -7 -65 6 -65 134 l0 114 50 0 c47 0 50 2 50 25 0 23 -3
25 -50 25 l-50 0 0 50 c0 49 -1 50 -30 50 -29 0 -30 -1 -30 -50z"/>
<path d="M1695 1476 c-123 -53 -137 -256 -23 -325 65 -40 173 -35 214 10 16
18 16 20 -1 39 -17 19 -18 19 -43 0 -16 -13 -40 -20 -69 -20 -38 0 -50 5 -79
34 -30 30 -34 40 -34 88 0 35 7 64 19 84 33 54 118 68 163 27 16 -14 20 -14
43 1 23 15 24 20 13 33 -33 41 -142 56 -203 29z"/>
<path d="M2195 1476 c-95 -44 -132 -158 -82 -256 52 -105 197 -131 280 -52 27
26 27 26 8 46 -19 19 -20 19 -51 -8 -53 -44 -150 -30 -177 26 -30 61 -36 58
124 58 l146 0 -7 47 c-7 55 -31 98 -68 126 -35 26 -130 33 -173 13z m120 -50
c34 -14 55 -41 55 -70 0 -14 -17 -16 -110 -16 l-110 0 13 33 c13 32 64 67 100
67 10 0 33 -6 52 -14z"/>
<path d="M2610 1484 c-8 -4 -27 -18 -42 -32 l-28 -26 0 27 c0 22 -5 27 -25 27
l-25 0 0 -175 0 -175 30 0 30 0 0 113 c0 94 3 117 20 145 24 39 62 56 107 47
52 -9 63 -43 63 -185 l0 -120 30 0 30 0 0 125 c0 180 -24 226 -123 231 -28 2
-59 1 -67 -2z"/>
<path d="M2965 1474 c-50 -26 -75 -55 -90 -108 -44 -147 77 -276 221 -237 23
6 49 20 59 31 17 19 17 21 0 40 -17 19 -18 19 -43 0 -30 -24 -98 -27 -130 -4
-76 53 -67 196 13 230 46 19 63 18 109 -7 36 -19 39 -19 57 -3 15 14 17 20 6
32 -33 41 -146 55 -202 26z"/>
<path d="M3305 1474 c-50 -26 -75 -55 -90 -108 -17 -56 -12 -101 16 -157 47
-94 192 -115 280 -42 l31 26 -23 17 c-21 17 -24 16 -57 -6 -41 -28 -106 -32
-140 -8 -22 15 -52 63 -52 84 0 6 49 10 140 10 l140 0 0 38 c0 53 -38 121 -80
143 -43 23 -124 25 -165 3z m124 -45 c29 -10 61 -52 61 -79 0 -6 -40 -10 -110
-10 -118 0 -125 4 -94 49 17 23 66 50 95 51 9 0 30 -5 48 -11z"/>
<path d="M4410 1479 c-13 -5 -33 -17 -42 -26 -17 -15 -17 -18 -2 -34 14 -16
20 -17 43 -5 44 22 82 27 118 15 30 -10 53 -39 53 -68 0 -5 -33 -10 -72 -13
-40 -3 -90 -13 -111 -23 -92 -43 -88 -154 8 -190 57 -22 109 -15 146 21 l27
26 4 -23 c2 -18 10 -25 31 -27 l27 -3 0 111 c0 199 -25 243 -138 247 -37 2
-78 -2 -92 -8z m170 -194 c0 -64 -65 -122 -123 -111 -43 9 -57 24 -57 63 0 29
5 36 33 48 46 20 147 20 147 0z"/>
<path d="M5045 1476 c-95 -44 -132 -158 -82 -256 52 -105 197 -131 280 -52 27
26 27 26 8 46 -19 19 -20 19 -51 -8 -53 -44 -150 -30 -177 26 -30 61 -36 58
124 58 l146 0 -7 47 c-7 55 -31 98 -68 126 -35 26 -130 33 -173 13z m120 -50
c34 -14 55 -41 55 -70 0 -14 -17 -16 -110 -16 l-110 0 13 33 c13 32 64 67 100
67 10 0 33 -6 52 -14z"/>
<path d="M5933 1470 c-48 -21 -50 -26 -27 -51 15 -17 18 -17 41 -2 14 9 47 17
73 17 55 1 90 -23 90 -61 0 -21 -4 -23 -48 -23 -70 0 -147 -26 -171 -57 -13
-15 -21 -41 -21 -63 0 -99 135 -145 220 -74 l30 26 0 -26 c0 -21 5 -26 25 -26
l25 0 0 131 c0 147 -12 189 -61 214 -39 21 -126 18 -176 -5z m177 -195 c0 -72
-66 -118 -135 -95 -36 12 -53 44 -41 75 9 24 65 44 124 45 49 0 52 -1 52 -25z"/>
<path d="M6622 1471 c-33 -21 -52 -55 -52 -92 0 -34 50 -75 110 -89 30 -7 63
-19 73 -28 62 -54 -60 -114 -126 -62 -22 18 -29 19 -47 8 -26 -17 -26 -22 10
-51 88 -74 240 -29 240 72 0 57 -30 88 -105 107 -77 20 -95 30 -95 53 0 44 65
62 115 32 30 -17 39 -19 55 -8 26 15 25 19 -5 47 -36 34 -127 39 -173 11z"/>
<path d="M1960 1304 l0 -175 28 3 27 3 3 173 2 172 -30 0 -30 0 0 -176z"/>
<path d="M5368 1305 l56 -176 31 3 c29 3 31 6 72 131 23 71 43 131 45 133 2 2
26 -57 53 -132 49 -134 50 -135 79 -132 29 3 31 7 83 168 29 91 53 168 53 173
0 4 -13 7 -29 7 -27 0 -31 -5 -45 -52 -50 -170 -64 -212 -70 -198 -3 8 -23 67
-44 130 l-39 115 -34 3 -34 3 -43 -131 c-24 -71 -45 -130 -46 -130 -2 0 -20
59 -41 130 l-38 130 -32 0 -32 0 55 -175z"/>
<path d="M6213 1468 c3 -7 35 -85 71 -172 36 -88 66 -164 66 -170 0 -6 -11
-35 -25 -63 -23 -51 -25 -53 -65 -53 -39 0 -41 -1 -38 -27 2 -23 8 -29 35 -31
41 -4 89 21 107 56 15 29 186 460 186 469 0 2 -14 3 -31 1 -31 -3 -33 -7 -81
-132 -27 -72 -50 -131 -52 -133 -1 -2 -27 58 -56 132 l-53 135 -35 0 c-23 0
-33 -4 -29 -12z"/>
<path d="M1034 816 c-209 -97 -201 -419 13 -512 87 -37 224 -14 281 48 l22 25
-20 18 c-17 16 -24 17 -38 7 -80 -58 -125 -70 -191 -52 -52 14 -109 63 -132
115 -35 76 -16 197 39 258 30 34 89 57 142 57 53 0 81 -10 115 -41 19 -17 21
-17 44 0 33 25 23 43 -40 75 -71 35 -162 36 -235 2z"/>
<path d="M3796 811 c-21 -23 -14 -57 13 -66 45 -14 76 32 45 66 -9 10 -22 19
-29 19 -7 0 -20 -9 -29 -19z"/>
<path d="M4730 565 l0 -265 30 0 30 0 0 265 0 265 -30 0 -30 0 0 -265z"/>
<path d="M5786 811 c-21 -23 -14 -57 13 -66 45 -14 76 32 45 66 -9 10 -22 19
-29 19 -7 0 -20 -9 -29 -19z"/>
<path d="M3980 701 l0 -51 -40 0 c-36 0 -40 -2 -40 -25 0 -22 4 -25 40 -25
l40 0 0 -129 c0 -115 2 -131 21 -155 19 -24 27 -27 78 -24 53 3 56 4 59 31 3
27 2 29 -27 22 -16 -3 -39 -1 -50 5 -19 10 -21 20 -21 130 l0 120 50 0 c47 0
50 2 50 25 0 23 -3 25 -49 25 l-50 0 -3 48 c-3 43 -5 47 -30 50 -27 3 -28 2
-28 -47z"/>
<path d="M5570 701 l0 -51 -40 0 c-36 0 -40 -2 -40 -25 0 -22 4 -25 40 -25
l40 0 0 -129 c0 -115 2 -131 21 -155 19 -24 27 -27 78 -24 53 3 56 4 59 31 3
27 2 29 -27 22 -16 -3 -39 -1 -50 5 -19 10 -21 20 -21 130 l0 120 50 0 c47 0
50 2 50 25 0 23 -3 25 -49 25 l-50 0 -3 48 c-3 43 -5 47 -30 50 -27 3 -28 2
-28 -47z"/>
<path d="M5970 701 l0 -51 -40 0 c-36 0 -40 -2 -40 -25 0 -22 4 -25 40 -25
l40 0 0 -129 c0 -115 2 -131 21 -155 19 -24 27 -27 78 -24 53 3 56 4 59 31 3
27 2 29 -27 22 -16 -3 -39 -1 -50 5 -19 10 -21 20 -21 130 l0 120 50 0 c47 0
50 2 50 25 0 23 -3 25 -49 25 l-50 0 -3 48 c-3 43 -5 47 -30 50 -27 3 -28 2
-28 -47z"/>
<path d="M6607 743 c-4 -3 -7 -26 -7 -50 0 -43 0 -43 -35 -43 -31 0 -35 -3
-35 -25 0 -22 4 -25 35 -25 l35 0 0 -102 c1 -119 11 -177 37 -196 11 -8 39
-12 73 -10 52 3 55 5 58 31 3 27 2 28 -31 22 -28 -6 -39 -3 -56 14 -19 19 -21
33 -21 131 l0 110 56 0 c52 0 55 1 52 23 -3 19 -10 22 -55 25 l-53 3 0 50 c0
45 -2 49 -23 49 -13 0 -27 -3 -30 -7z"/>
<path d="M1498 650 c-75 -22 -127 -95 -128 -177 0 -108 77 -183 187 -183 93 1
159 49 182 136 38 141 -98 267 -241 224z m122 -65 c63 -32 81 -138 35 -194
-68 -79 -189 -56 -216 42 -31 115 77 206 181 152z"/>
<path d="M1920 649 c-14 -6 -35 -20 -47 -31 l-23 -21 0 27 c0 24 -3 27 -27 24
-19 -2 -28 -9 -27 -20 0 -10 1 -88 2 -173 l2 -155 30 0 30 0 0 110 c0 151 21
190 104 190 57 0 66 -23 66 -172 l0 -128 29 0 29 0 4 126 c3 124 3 126 31 150
29 25 75 31 107 14 29 -15 40 -65 40 -181 l0 -109 30 0 30 0 -1 113 c-1 193
-28 242 -134 242 -46 0 -58 -4 -85 -30 -29 -28 -32 -29 -42 -12 -12 22 -67 47
-100 46 -13 0 -34 -5 -48 -10z"/>
<path d="M2520 649 c-14 -6 -35 -20 -47 -31 l-23 -21 0 26 c0 22 -5 27 -25 27
l-25 0 0 -175 0 -175 30 0 30 0 0 110 c0 151 21 190 103 190 60 0 67 -19 67
-168 l0 -132 30 0 30 0 0 105 c0 151 23 195 100 195 19 0 40 -9 55 -25 24 -23
25 -30 25 -150 l0 -125 30 0 30 0 0 118 c0 135 -11 183 -46 211 -54 43 -127
39 -175 -8 -20 -21 -29 -25 -33 -15 -9 22 -69 54 -101 53 -16 0 -41 -5 -55
-10z"/>
<path d="M3515 647 c-17 -8 -37 -22 -45 -32 -14 -17 -15 -16 -20 6 -4 17 -14
25 -33 27 l-27 3 0 -175 0 -176 30 0 30 0 0 93 c0 111 12 159 47 187 34 27 96
27 123 0 18 -18 20 -33 20 -150 l0 -130 30 0 30 0 0 133 c0 85 -5 141 -13 156
-29 57 -113 85 -172 58z"/>
<path d="M4980 649 c-14 -5 -35 -20 -47 -31 l-23 -21 0 26 c0 22 -5 27 -25 27
l-25 0 0 -175 0 -175 30 0 30 0 0 111 c0 61 5 120 11 132 19 37 52 57 96 57
33 0 46 -5 62 -26 19 -24 21 -40 21 -150 l0 -124 30 0 30 0 -1 123 c0 135 -11
181 -50 210 -31 23 -103 31 -139 16z"/>
<path d="M5293 649 c-43 -13 -73 -53 -73 -99 0 -47 29 -75 95 -91 28 -6 60
-18 73 -25 26 -17 29 -56 6 -75 -25 -21 -89 -17 -121 7 -28 21 -30 21 -50 4
l-22 -17 30 -29 c25 -24 39 -29 97 -32 58 -3 72 0 102 20 68 46 62 135 -10
170 -19 9 -57 23 -85 30 -40 11 -51 19 -53 38 -3 14 3 29 14 37 26 19 81 16
103 -6 16 -16 21 -17 45 -4 27 14 27 15 9 35 -37 42 -95 56 -160 37z"/>
<path d="M6915 648 c-36 -12 -82 -53 -100 -88 -48 -95 -4 -224 88 -259 65 -25
161 -7 201 37 15 18 16 24 6 37 -16 20 -27 19 -57 -5 -37 -29 -85 -35 -125
-16 -32 15 -68 60 -68 85 0 7 46 11 141 11 l141 0 -4 55 c-6 68 -29 102 -88
133 -47 24 -87 27 -135 10z m136 -77 c53 -54 43 -61 -81 -61 -60 0 -110 3
-110 8 1 18 29 56 51 68 13 7 43 13 67 14 35 0 49 -6 73 -29z"/>
<path d="M3000 519 c0 -149 11 -186 64 -214 45 -24 127 -17 160 14 l24 23 7
-21 c4 -14 15 -21 31 -21 l24 0 0 175 0 175 -30 0 -30 0 0 -105 c0 -130 -14
-169 -66 -191 -21 -9 -48 -13 -65 -9 -51 11 -59 36 -59 177 l0 128 -30 0 -30
0 0 -131z"/>
<path d="M3797 643 c-4 -3 -7 -82 -7 -175 l0 -168 30 0 30 0 0 175 0 175 -23
0 c-13 0 -27 -3 -30 -7z"/>
<path d="M4150 638 c1 -7 32 -87 69 -178 l69 -165 -19 -50 c-22 -59 -43 -77
-84 -73 -26 3 -30 -1 -33 -25 -3 -26 -2 -27 47 -27 79 0 88 13 195 285 86 220
93 240 74 243 -11 2 -25 1 -32 -1 -7 -3 -35 -64 -62 -136 -27 -72 -51 -131
-54 -131 -3 0 -28 60 -56 133 -50 128 -52 132 -83 135 -21 2 -31 -1 -31 -10z"/>
<path d="M5787 643 c-4 -3 -7 -82 -7 -175 l0 -168 30 0 30 0 0 175 0 175 -23
0 c-13 0 -27 -3 -30 -7z"/>
<path d="M6180 519 c0 -149 11 -186 64 -214 45 -24 127 -17 160 14 l24 23 7
-21 c4 -14 15 -21 31 -21 l24 0 0 175 0 175 -30 0 -30 0 0 -105 c0 -130 -14
-169 -66 -191 -21 -9 -48 -13 -65 -9 -51 11 -59 36 -59 177 l0 128 -30 0 -30
0 0 -131z"/>
</g>
</svg>
