<?xml version="1.0" standalone="no"?>
<!DOCTYPE svg PUBLIC "-//W3C//DTD SVG 20010904//EN"
 "http://www.w3.org/TR/2001/REC-SVG-20010904/DTD/svg10.dtd">
<svg version="1.0" xmlns="http://www.w3.org/2000/svg"
 width="200.000000pt" height="200.000000pt" viewBox="0 0 200.000000 200.000000"
 preserveAspectRatio="xMidYMid meet">

<g transform="translate(0.000000,200.000000) scale(0.100000,-0.100000)"
fill="#000000" stroke="none">
<path d="M600 1908 c0 -2 -38 -219 -85 -483 -47 -264 -85 -483 -85 -487 0 -5
105 -8 233 -8 l232 0 2 35 c2 19 4 40 5 46 2 5 -15 16 -36 24 -90 31 -138 99
-139 193 0 58 27 138 60 174 13 15 14 23 5 44 -17 36 -15 128 3 172 38 91 124
169 211 191 37 10 41 14 51 56 l10 45 -233 0 c-129 0 -234 -1 -234 -2z"/>
<path d="M1114 1864 c1 -44 2 -46 41 -59 57 -20 111 -84 126 -149 14 -62 -4
-138 -46 -199 -20 -30 -23 -42 -15 -63 6 -14 10 -51 10 -82 -1 -127 -90 -237
-222 -277 -38 -11 -42 -16 -53 -58 l-12 -47 232 0 231 0 83 473 c45 259 85
480 87 490 5 16 -11 17 -229 17 l-234 0 1 -46z"/>
<path d="M991 1747 c-49 -19 -108 -72 -133 -120 -19 -39 -31 -138 -17 -152 3
-3 32 7 63 21 80 36 157 37 227 1 28 -15 52 -27 53 -27 2 0 12 19 22 42 55
121 -6 237 -128 244 -29 2 -68 -2 -87 -9z"/>
<path d="M952 1456 c-23 -8 -49 -20 -58 -26 -13 -11 -12 -15 6 -27 54 -38 140
-38 201 -1 l32 20 -29 18 c-41 26 -101 32 -152 16z"/>
<path d="M809 1338 c-31 -58 -32 -146 -3 -184 35 -47 70 -67 126 -71 125 -10
241 98 242 224 0 29 -3 55 -6 59 -4 3 -31 -6 -62 -20 -89 -42 -195 -34 -258
21 -15 13 -19 11 -39 -29z"/>
<path d="M116 838 c-6 -18 -36 -193 -36 -207 0 -8 29 -11 98 -9 92 3 97 4 100
26 3 21 0 22 -58 22 -53 0 -61 2 -58 18 2 13 15 18 56 20 48 3 52 5 52 28 0
22 -4 24 -45 24 -38 0 -45 3 -45 20 0 18 7 20 60 20 33 0 60 4 60 9 0 5 3 16
6 25 5 14 -6 16 -90 16 -69 0 -98 -4 -100 -12z"/>
<path d="M311 723 c-7 -38 -14 -76 -17 -85 -4 -15 1 -18 29 -18 33 0 34 1 43
51 9 55 34 83 54 63 8 -8 9 -27 2 -63 l-9 -51 32 0 c33 0 33 1 44 65 14 80 5
105 -40 105 -17 0 -39 -5 -50 -10 -13 -7 -19 -7 -19 0 0 5 -13 10 -29 10 -28
0 -29 -2 -40 -67z"/>
<path d="M547 767 c-29 -23 -45 -67 -39 -105 8 -53 113 -65 163 -19 l24 22
-24 3 c-13 2 -34 -2 -47 -8 -27 -15 -54 -7 -54 15 0 12 13 15 65 15 l65 0 0
34 c0 25 -7 39 -22 50 -33 24 -98 20 -131 -7z m93 -33 c0 -9 -11 -14 -30 -14
-33 0 -39 14 -13 28 21 12 43 5 43 -14z"/>
<path d="M727 748 c-3 -24 -9 -62 -13 -85 -6 -43 -6 -43 24 -43 31 0 42 14 42
54 0 26 28 56 52 56 10 0 17 11 20 30 5 35 -14 41 -44 13 -17 -15 -18 -15 -18
0 0 12 -9 17 -29 17 -26 0 -29 -4 -34 -42z"/>
<path d="M902 783 c-20 -8 -42 -59 -42 -96 0 -45 20 -61 70 -54 28 3 40 1 40
-7 0 -25 -23 -35 -71 -29 -33 4 -49 2 -49 -5 0 -19 36 -32 85 -32 66 0 89 26
105 121 6 41 14 82 16 92 4 13 -1 17 -25 17 -18 0 -31 -5 -31 -12 0 -9 -3 -9
-12 0 -12 12 -62 15 -86 5z m74 -48 c11 -27 -5 -65 -27 -65 -25 0 -35 25 -21
56 13 27 40 32 48 9z"/>
<path d="M1086 728 c19 -91 18 -119 -6 -125 -11 -3 -20 -14 -20 -24 0 -26 63
-26 88 -1 16 16 112 192 112 206 0 3 -13 6 -29 6 -25 0 -31 -7 -51 -52 -22
-49 -24 -51 -31 -28 -4 14 -7 37 -8 53 -1 24 -5 27 -35 27 l-34 0 14 -62z"/>
<path d="M1276 768 c-8 -36 -36 -194 -36 -202 0 -4 15 -6 33 -4 28 3 32 7 35
36 3 27 7 32 20 27 37 -15 48 -15 79 4 42 26 63 93 41 131 -15 27 -72 40 -91
21 -14 -14 -30 -14 -22 -1 4 6 -6 10 -24 10 -24 0 -32 -5 -35 -22z m114 -52
c0 -32 -24 -61 -44 -53 -22 9 -21 63 1 75 24 14 43 4 43 -22z"/>
<path d="M1512 774 c-12 -8 -22 -19 -22 -25 0 -12 47 -11 72 2 14 8 23 8 31 0
15 -15 5 -22 -49 -32 -55 -11 -84 -33 -84 -65 0 -32 33 -48 79 -38 20 4 52 7
72 5 l36 -2 8 63 c9 72 8 90 -8 100 -22 14 -112 9 -135 -8z m78 -92 c0 -14
-23 -32 -42 -32 -20 0 -25 26 -5 33 20 8 47 8 47 -1z"/>
<path d="M1734 780 c-32 -13 -54 -50 -54 -92 0 -57 40 -86 104 -74 33 6 76 38
76 56 0 15 -52 11 -73 -5 -38 -28 -63 16 -37 66 11 20 45 26 55 9 9 -15 65
-12 65 3 0 39 -79 60 -136 37z"/>
<path d="M1270 470 c0 -5 5 -10 11 -10 5 0 7 5 4 10 -3 6 -8 10 -11 10 -2 0
-4 -4 -4 -10z"/>
<path d="M1573 440 c0 -25 2 -35 4 -22 2 12 2 32 0 45 -2 12 -4 2 -4 -23z"/>
<path d="M1723 440 c0 -25 2 -35 4 -22 2 12 2 32 0 45 -2 12 -4 2 -4 -23z"/>
<path d="M1920 464 c0 -8 -4 -13 -9 -10 -13 9 -32 -19 -25 -37 3 -9 14 -15 25
-14 15 1 19 9 19 39 0 21 -2 38 -5 38 -3 0 -5 -7 -5 -16z m0 -34 c0 -5 -4 -10
-10 -10 -5 0 -10 5 -10 10 0 6 5 10 10 10 6 0 10 -4 10 -10z"/>
<path d="M70 440 c0 -18 6 -33 15 -37 21 -7 33 6 16 16 -11 7 -11 10 0 14 12
5 12 7 0 15 -11 8 -11 10 0 15 8 3 4 6 -8 6 -19 1 -23 -4 -23 -29z"/>
<path d="M740 435 c0 -30 3 -35 23 -35 21 1 21 1 4 14 -14 11 -15 15 -5 19 10
4 10 7 -1 15 -11 8 -10 11 5 15 16 4 16 5 -3 6 -20 1 -23 -4 -23 -34z"/>
<path d="M1500 440 c0 -30 23 -51 38 -35 4 4 1 10 -5 12 -7 3 -13 16 -13 29 0
13 -4 24 -10 24 -5 0 -10 -14 -10 -30z"/>
<path d="M1762 438 c2 -17 8 -33 13 -35 9 -3 11 15 6 60 -1 4 -6 7 -12 7 -6 0
-9 -14 -7 -32z"/>
<path d="M153 453 c-15 -5 -17 -39 -4 -48 5 -3 11 5 14 17 l4 23 11 -25 12
-25 -3 29 c-2 30 -12 38 -34 29z"/>
<path d="M224 446 c-9 -23 3 -46 23 -45 11 0 13 3 6 6 -7 2 -13 11 -13 19 0 9
5 12 11 8 7 -4 10 -1 7 6 -7 21 -27 24 -34 6z"/>
<path d="M301 451 c-7 -5 -11 -19 -9 -32 4 -24 5 -24 16 5 14 32 12 39 -7 27z"/>
<path d="M353 448 c-17 -23 -10 -63 12 -63 15 0 19 7 20 38 2 38 -13 49 -32
25z"/>
<path d="M416 440 c13 -50 21 -54 33 -20 11 34 7 57 -5 26 -6 -15 -7 -15 -21
1 -13 17 -13 16 -7 -7z"/>
<path d="M498 453 c-17 -4 -26 -52 -12 -66 9 -9 44 26 44 45 0 20 -9 26 -32
21z m22 -23 c0 -5 -4 -10 -10 -10 -5 0 -10 5 -10 10 0 6 5 10 10 10 6 0 10 -4
10 -10z"/>
<path d="M564 449 c-4 -8 -3 -9 4 -5 7 4 12 2 12 -3 0 -6 -4 -11 -10 -11 -5 0
-10 -7 -10 -15 0 -8 9 -15 21 -15 16 0 20 5 17 27 -3 29 -22 41 -34 22z"/>
<path d="M637 453 c-11 -10 -8 -41 4 -49 6 -3 16 -1 22 6 9 9 9 11 -2 8 -7 -2
-16 3 -18 10 -3 6 3 12 12 12 9 0 13 5 10 10 -7 12 -19 13 -28 3z"/>
<path d="M823 453 c-7 -3 -12 -17 -12 -31 2 -24 2 -24 6 -4 2 12 8 22 13 22 5
0 11 -10 13 -22 4 -20 4 -20 6 4 1 29 -7 38 -26 31z"/>
<path d="M887 453 c-11 -10 -8 -61 4 -69 6 -3 18 1 27 10 9 9 11 16 5 16 -6 0
-14 7 -17 16 -3 8 -2 12 4 9 6 -3 10 1 10 9 0 16 -21 22 -33 9z"/>
<path d="M1013 453 c-7 -3 -12 -17 -12 -31 2 -24 2 -24 6 -4 2 12 8 22 13 22
5 0 11 -10 13 -22 4 -20 4 -20 6 4 1 29 -7 38 -26 31z"/>
<path d="M1074 445 c-9 -22 3 -45 23 -44 11 0 13 3 6 6 -18 7 -16 23 3 23 14
0 14 3 4 15 -7 8 -17 15 -22 15 -5 0 -11 -7 -14 -15z"/>
<path d="M1152 451 c-20 -12 -10 -45 13 -48 11 -2 14 0 8 3 -7 3 -13 15 -13
27 0 18 2 19 10 7 5 -8 12 -11 15 -8 8 7 -2 28 -13 28 -4 0 -13 -4 -20 -9z"/>
<path d="M1333 453 c-7 -3 -12 -17 -12 -31 2 -24 2 -24 6 -4 2 12 8 22 13 22
5 0 11 -10 13 -22 4 -20 4 -20 6 4 1 29 -7 38 -26 31z"/>
<path d="M1394 446 c-9 -24 0 -61 15 -61 22 0 24 21 4 41 -17 17 -17 17 0 11
11 -4 17 -2 17 8 0 19 -29 20 -36 1z"/>
<path d="M1611 426 c1 -24 3 -26 6 -8 2 12 8 22 13 22 5 0 10 -10 13 -22 4
-23 4 -23 15 2 8 18 11 20 11 8 1 -10 6 -18 12 -18 6 0 9 10 7 23 -2 18 -10
22 -40 23 -36 1 -38 -1 -37 -30z"/>
<path d="M1834 451 c5 -7 1 -9 -9 -4 -13 4 -16 1 -13 -18 2 -15 10 -25 23 -26
11 -2 14 0 8 3 -18 8 -16 24 3 24 18 0 14 22 -6 28 -7 3 -10 0 -6 -7z"/>
<path d="M950 424 c0 -14 4 -23 10 -19 6 3 10 15 10 26 0 10 -4 19 -10 19 -5
0 -10 -12 -10 -26z"/>
<path d="M1221 423 c1 -22 2 -23 6 -8 3 11 10 23 17 27 7 5 5 8 -6 8 -13 0
-18 -7 -17 -27z"/>
<path d="M1270 424 c0 -14 4 -23 10 -19 6 3 10 15 10 26 0 10 -4 19 -10 19 -5
0 -10 -12 -10 -26z"/>
<path d="M945 228 c-15 -12 -22 -25 -18 -35 4 -11 3 -14 -5 -9 -8 5 -12 0 -12
-13 0 -12 6 -21 13 -21 8 0 7 -4 -3 -10 -11 -7 -11 -10 -2 -10 7 0 11 -4 7 -9
-9 -15 45 -51 76 -51 46 0 60 9 48 31 -5 11 -14 17 -19 14 -5 -3 -12 0 -16 6
-5 8 -3 9 6 4 9 -6 11 -4 5 6 -5 8 4 3 20 -11 26 -23 27 -23 16 -3 -6 12 -9
28 -8 35 2 7 2 10 0 5 -3 -4 -8 -5 -13 -2 -4 2 -15 -4 -25 -15 -15 -16 -16
-22 -5 -35 7 -9 10 -18 6 -22 -3 -3 -6 -1 -6 6 0 10 -39 32 -62 35 -13 2 -21
16 -8 16 9 0 10 3 2 13 -8 10 -6 13 8 14 11 1 22 -3 26 -9 4 -5 20 4 39 22 27
26 36 30 52 21 10 -6 13 -11 6 -11 -6 0 -9 -9 -6 -20 3 -11 10 -17 16 -13 6 3
7 1 3 -5 -4 -7 -2 -12 3 -12 6 0 11 7 11 15 0 8 -4 15 -9 15 -5 0 -8 8 -7 17
0 9 -9 22 -21 28 -13 7 -20 15 -15 20 4 5 1 5 -5 1 -7 -4 -13 -3 -13 2 0 16
-61 9 -85 -10z m49 5 c4 -4 13 -8 19 -8 13 0 22 -14 10 -16 -15 -1 -33 -21
-28 -29 3 -5 1 -11 -4 -14 -10 -7 -9 20 2 30 15 16 6 26 -10 12 -27 -23 -47
-33 -39 -20 4 7 1 12 -6 12 -7 0 -2 9 12 20 28 22 33 23 44 13z m-25 -127 c11
-14 6 -15 -27 -7 -4 1 8 21 12 21 2 0 9 -6 15 -14z"/>
<path d="M960 215 c-7 -8 -8 -15 -2 -15 5 0 15 7 22 15 7 8 8 15 2 15 -5 0
-15 -7 -22 -15z"/>
<path d="M1060 142 c0 -12 19 -26 26 -19 2 2 -2 10 -11 17 -9 8 -15 8 -15 2z"/>
</g>
</svg>
