<?xml version="1.0" standalone="no"?>
<!DOCTYPE svg PUBLIC "-//W3C//DTD SVG 20010904//EN"
 "http://www.w3.org/TR/2001/REC-SVG-20010904/DTD/svg10.dtd">
<svg version="1.0" xmlns="http://www.w3.org/2000/svg"
 width="145.000000pt" height="81.000000pt" viewBox="0 0 145.000000 81.000000"
 preserveAspectRatio="xMidYMid meet">

<g transform="translate(0.000000,81.000000) scale(0.100000,-0.100000)"
fill="#000000" stroke="none">
<path d="M850 780 c0 -27 -39 -43 -60 -25 -12 11 -18 11 -35 -1 -16 -12 -18
-18 -7 -34 15 -25 6 -49 -24 -61 -30 -11 -32 -49 -4 -56 19 -5 20 -14 20 -128
0 -111 2 -125 23 -156 47 -71 153 -77 214 -12 l33 34 0 129 c0 119 1 128 20
133 28 7 26 45 -4 56 -31 12 -40 40 -21 61 14 15 13 18 -3 33 -16 14 -21 15
-37 3 -25 -18 -54 -9 -61 20 -8 32 -54 35 -54 4z m58 -122 c17 -17 17 -279 0
-296 -7 -7 -21 -12 -33 -12 -40 0 -45 17 -45 160 0 143 5 160 45 160 12 0 26
-5 33 -12z"/>
<path d="M135 750 c-3 -6 -16 -8 -29 -4 -28 7 -74 -28 -92 -72 -10 -23 -14
-76 -14 -166 0 -152 11 -186 70 -226 40 -27 98 -26 131 4 18 16 20 16 37 1 10
-9 33 -20 50 -23 l32 -6 0 46 c0 34 -4 46 -15 46 -21 0 -24 25 -27 187 -3 133
-4 143 -27 167 -19 20 -27 23 -41 14 -23 -15 -50 -3 -50 22 0 21 -14 27 -25
10z m5 -45 c0 -8 -7 -15 -15 -15 -8 0 -15 7 -15 15 0 8 7 15 15 15 8 0 15 -7
15 -15z m50 -179 c0 -149 -1 -155 -22 -170 -29 -20 -34 -20 -58 4 -25 25 -26
50 -2 50 16 1 16 1 0 11 -23 13 -23 39 0 39 16 1 16 1 0 11 -10 5 -18 17 -18
24 0 8 8 15 18 15 16 1 16 1 0 11 -23 13 -23 39 -1 39 15 0 14 2 -3 15 -18 14
-18 16 -1 29 15 12 16 14 2 20 -8 3 -15 17 -15 31 0 23 3 25 50 25 l50 0 0
-154z"/>
<path d="M448 739 c-57 -34 -68 -68 -68 -203 0 -64 3 -116 8 -116 4 0 15 7 25
14 14 11 17 30 17 119 0 80 3 108 14 114 8 4 15 17 17 27 6 30 36 44 54 25 21
-20 9 -49 -20 -49 -42 0 -55 -29 -55 -124 l0 -88 33 21 c38 23 48 72 22 100
-27 31 10 76 41 50 19 -15 18 -48 -1 -55 -15 -6 -22 -54 -7 -54 4 0 23 13 42
29 30 26 33 32 22 48 -23 34 -25 44 -10 59 20 20 48 7 48 -22 0 -13 -4 -24 -9
-24 -5 0 -11 -12 -13 -27 -2 -22 -25 -43 -116 -108 -107 -76 -112 -82 -107
-110 11 -60 83 -111 147 -102 67 9 109 49 122 115 l6 32 -45 0 c-32 0 -45 -4
-45 -14 0 -22 -29 -46 -55 -46 -24 0 -45 25 -45 52 0 7 41 41 90 76 98 69 106
82 97 159 -11 99 -122 153 -209 102z"/>
<path d="M1194 746 c-35 -15 -74 -60 -74 -86 0 -9 -11 -27 -25 -40 -44 -41
-27 -115 38 -164 18 -14 59 -37 91 -52 47 -21 68 -26 117 -22 87 6 97 19 97
126 0 72 -4 91 -20 108 -13 14 -16 24 -9 29 15 9 14 25 -2 25 -7 0 -24 14 -36
31 -40 54 -113 72 -177 45z m100 -95 c8 -13 -39 -22 -65 -13 l-22 9 23 16 c23
16 50 11 64 -12z m76 19 c0 -5 7 -10 16 -10 13 0 14 -3 5 -14 -6 -7 -8 -22 -4
-32 6 -17 5 -17 -10 -5 -14 11 -20 11 -34 0 -15 -12 -16 -12 -10 5 4 10 2 25
-4 32 -9 11 -8 14 5 14 9 0 16 5 16 10 0 6 5 10 10 10 6 0 10 -4 10 -10z m-50
-50 c0 -5 -6 -10 -12 -10 -10 0 -13 -26 -13 -96 0 -88 -2 -97 -20 -104 -11 -4
-30 -4 -42 1 -21 8 -23 15 -23 89 l0 81 -31 -18 c-17 -10 -40 -29 -50 -42 -11
-13 -22 -21 -26 -17 -10 10 47 65 92 88 67 35 125 48 125 28z m-219 -83 c-17
-17 -25 21 -10 51 l13 27 4 -34 c2 -18 -1 -38 -7 -44z m329 22 c0 -10 -4 -20
-9 -24 -15 -9 -31 29 -24 55 6 22 7 22 20 5 7 -11 13 -27 13 -36z m-20 -49 c0
-5 -4 -10 -10 -10 -5 0 -10 5 -10 10 0 6 5 10 10 10 6 0 10 -4 10 -10z m14
-67 c-5 -14 -15 -28 -21 -31 -16 -5 -17 32 -2 60 16 30 36 7 23 -29z"/>
<path d="M1071 454 c-1 -19 7 -38 19 -49 19 -17 20 -31 20 -207 0 -180 1 -188
19 -188 11 0 33 11 48 24 27 23 28 28 31 129 l4 105 37 -5 c44 -6 89 14 120
53 28 36 27 56 -1 50 -13 -3 -49 -8 -81 -11 -54 -6 -59 -5 -64 14 -3 12 -9 21
-14 21 -5 0 -27 11 -49 25 -46 29 -50 30 -50 9 0 -25 -19 -6 -29 29 l-9 32 -1
-31z"/>
<path d="M31 162 c-16 -30 -14 -37 14 -37 28 0 32 12 11 40 -13 18 -14 18 -25
-3z"/>
<path d="M90 148 c0 -22 3 -29 9 -19 6 9 11 10 15 2 12 -19 22 -12 21 17 0 20
-6 28 -22 30 -20 3 -23 -1 -23 -30z m30 12 c0 -5 -5 -10 -11 -10 -5 0 -7 5 -4
10 3 6 8 10 11 10 2 0 4 -4 4 -10z"/>
<path d="M161 148 c0 -28 2 -30 9 -13 7 17 9 17 9 3 1 -21 17 -24 24 -5 4 10
6 10 6 0 2 -27 21 -11 21 17 0 32 -30 45 -30 13 -1 -17 -1 -17 -14 0 -19 25
-26 21 -25 -15z"/>
<path d="M253 150 c6 -16 14 -30 17 -30 3 0 11 14 17 30 6 17 7 30 2 30 -5 0
-9 -5 -9 -12 0 -9 -3 -9 -12 0 -21 21 -27 13 -15 -18z"/>
<path d="M340 150 c0 -26 3 -30 28 -29 19 1 21 3 8 6 -15 4 -16 7 -5 14 10 6
10 9 2 9 -19 0 -16 18 5 23 10 3 6 5 -10 6 -25 1 -28 -3 -28 -29z"/>
<path d="M410 149 c0 -26 3 -30 22 -27 26 3 37 36 16 49 -25 17 -38 9 -38 -22z
m38 -1 c-6 -18 -28 -21 -28 -4 0 9 7 16 16 16 9 0 14 -5 12 -12z"/>
<path d="M481 152 c-1 -29 2 -33 22 -30 16 2 23 11 25 32 2 18 0 26 -7 21 -6
-3 -11 -16 -11 -28 0 -24 -16 -13 -23 18 -3 13 -5 8 -6 -13z"/>
<path d="M552 163 c-5 -10 -7 -24 -5 -30 6 -16 53 -17 53 -3 0 6 -8 10 -17 8
-11 -2 -18 3 -18 12 0 9 7 14 19 12 11 -2 15 1 11 7 -10 17 -33 13 -43 -6z"/>
<path d="M622 152 c-9 -27 -8 -29 19 -29 16 0 29 2 29 3 0 14 -22 54 -29 54
-5 0 -13 -13 -19 -28z"/>
<path d="M686 153 c4 -16 8 -30 10 -32 6 -7 11 2 18 32 5 23 3 27 -14 27 -17
0 -19 -4 -14 -27z"/>
<path d="M737 173 c-11 -10 -8 -53 3 -53 6 0 10 14 10 30 0 31 -2 35 -13 23z"/>
<path d="M771 166 c-16 -20 -3 -46 24 -46 27 0 36 17 23 43 -10 20 -31 22 -47
3z m34 -26 c-5 -8 -11 -8 -17 -2 -6 6 -7 16 -3 22 5 8 11 8 17 2 6 -6 7 -16 3
-22z"/>
<path d="M840 148 c0 -26 3 -30 11 -18 8 11 12 12 16 3 9 -23 33 -14 33 11 0
28 -20 47 -20 19 -1 -17 -1 -17 -14 0 -19 25 -26 21 -26 -15z"/>
<path d="M922 155 c-15 -34 -17 -32 18 -32 35 0 33 -2 18 32 -14 32 -22 32
-36 0z"/>
<path d="M980 150 c0 -25 4 -30 23 -29 12 0 16 3 10 6 -7 2 -13 16 -13 29 0
13 -4 24 -10 24 -5 0 -10 -13 -10 -30z"/>
<path d="M22 71 c-20 -12 -10 -46 14 -49 25 -4 40 24 23 44 -13 16 -19 17 -37
5z m28 -21 c0 -11 -7 -20 -15 -20 -15 0 -21 21 -8 33 12 13 23 7 23 -13z"/>
<path d="M120 55 c0 -14 -4 -25 -10 -25 -5 0 -10 9 -10 20 0 11 -5 20 -11 20
-21 0 -4 -45 19 -48 19 -3 22 1 22 27 0 17 -2 31 -5 31 -3 0 -5 -11 -5 -25z"/>
<path d="M159 48 c3 -24 6 -27 9 -13 2 11 9 26 14 33 8 9 5 12 -9 12 -16 0
-19 -5 -14 -32z"/>
<path d="M207 74 c-11 -11 -8 -54 3 -54 6 0 10 5 10 11 0 9 4 9 14 0 10 -9 13
-6 12 16 -1 27 -24 42 -39 27z m33 -14 c0 -5 -4 -10 -10 -10 -5 0 -10 5 -10
10 0 6 5 10 10 10 6 0 10 -4 10 -10z"/>
<path d="M277 73 c-4 -3 -7 -17 -7 -30 0 -19 5 -23 28 -22 24 0 25 1 7 9 -13
6 -15 9 -5 9 13 1 13 2 0 11 -13 9 -13 11 0 20 13 8 13 10 -1 10 -9 0 -19 -3
-22 -7z"/>
<path d="M342 53 c-10 -29 -9 -31 14 -29 27 1 30 14 11 41 -13 17 -15 16 -25
-12z"/>
<path d="M407 73 c-4 -3 -7 -17 -7 -30 0 -18 5 -23 23 -22 17 1 18 2 4 6 -25
6 -17 39 8 35 17 -2 17 -1 5 7 -18 13 -24 13 -33 4z"/>
<path d="M461 50 c0 -19 3 -29 6 -22 2 6 11 12 18 12 7 0 16 -6 18 -12 3 -7 5
3 5 22 0 19 -2 27 -5 18 -2 -10 -8 -18 -13 -18 -5 0 -14 8 -19 18 -8 14 -10
10 -10 -18z"/>
<path d="M560 48 c0 -18 4 -28 8 -22 4 6 15 14 26 17 15 6 16 10 6 22 -22 26
-40 18 -40 -17z m30 12 c0 -5 -4 -10 -10 -10 -5 0 -10 5 -10 10 0 6 5 10 10
10 6 0 10 -4 10 -10z"/>
<path d="M620 48 c0 -26 3 -30 11 -18 8 11 12 12 16 2 8 -20 19 -14 19 11 0
23 -12 37 -33 37 -8 0 -13 -13 -13 -32z m35 12 c3 -5 -1 -10 -10 -10 -9 0 -13
5 -10 10 3 6 8 10 10 10 2 0 7 -4 10 -10z"/>
<path d="M691 66 c-17 -20 -2 -48 23 -44 24 3 34 37 14 49 -18 12 -24 11 -37
-5z m37 -19 c2 -10 -3 -17 -12 -17 -10 0 -16 9 -16 21 0 24 23 21 28 -4z"/>
<path d="M762 63 c-5 -10 -7 -24 -5 -30 7 -19 53 -16 53 2 0 8 -8 15 -17 15
-15 0 -16 -2 -3 -10 13 -8 12 -10 -3 -10 -12 0 -17 6 -15 18 2 9 10 16 17 14
7 -1 10 2 6 8 -9 15 -23 12 -33 -7z"/>
<path d="M830 48 c0 -26 3 -30 11 -18 8 11 12 12 16 2 8 -20 19 -14 19 11 0
23 -12 37 -33 37 -8 0 -13 -13 -13 -32z m30 12 c0 -5 -4 -10 -10 -10 -5 0 -10
5 -10 10 0 6 5 10 10 10 6 0 10 -4 10 -10z"/>
<path d="M902 53 c-10 -29 -9 -31 14 -29 27 1 30 14 11 41 -13 17 -15 16 -25
-12z"/>
<path d="M961 48 c0 -28 2 -30 9 -13 12 28 12 45 0 45 -5 0 -10 -15 -9 -32z"/>
<path d="M1006 71 c-4 -5 -2 -20 3 -33 9 -21 10 -21 10 10 1 32 -3 39 -13 23z"/>
<path d="M980 35 c0 -8 5 -15 10 -15 6 0 10 7 10 15 0 8 -4 15 -10 15 -5 0
-10 -7 -10 -15z"/>
</g>
</svg>
