<?xml version="1.0" standalone="no"?>
<!DOCTYPE svg PUBLIC "-//W3C//DTD SVG 20010904//EN"
 "http://www.w3.org/TR/2001/REC-SVG-20010904/DTD/svg10.dtd">
<svg version="1.0" xmlns="http://www.w3.org/2000/svg"
 width="400.000000pt" height="400.000000pt" viewBox="0 0 400.000000 400.000000"
 preserveAspectRatio="xMidYMid meet">

<g transform="translate(0.000000,400.000000) scale(0.100000,-0.100000)"
fill="#000000" stroke="none">
<path d="M892 3341 c-97 -39 -115 -62 -297 -381 -62 -107 -162 -281 -224 -387
-127 -220 -148 -277 -130 -363 10 -50 84 -189 314 -585 17 -29 68 -119 115
-201 92 -161 137 -214 209 -248 43 -20 63 -21 365 -24 l318 -3 -30 53 -31 53
-283 5 c-256 5 -286 7 -313 24 -43 26 -62 56 -232 351 -82 143 -190 329 -239
414 -80 139 -89 160 -89 205 0 59 -1 56 160 336 251 437 339 586 359 608 52
58 38 57 578 60 331 2 511 -1 537 -8 22 -6 54 -22 71 -36 26 -23 110 -156 192
-304 l25 -45 62 -3 c35 -2 61 1 58 5 -2 4 -53 92 -111 195 -78 137 -119 198
-152 227 -82 72 -74 71 -663 70 -478 0 -530 -2 -569 -18z"/>
<path d="M2762 2916 l31 -54 181 -4 182 -3 66 -33 c82 -40 125 -87 200 -218
31 -55 116 -202 188 -329 167 -289 159 -276 210 -363 23 -40 48 -94 56 -119
21 -70 17 -159 -9 -223 -13 -31 -124 -229 -246 -440 -123 -212 -233 -401 -243
-420 -31 -55 -95 -115 -156 -146 l-57 -29 -570 0 c-563 0 -571 0 -617 22 -67
31 -127 90 -178 177 l-45 76 -57 0 c-32 0 -58 -3 -58 -6 0 -4 23 -47 51 -96
61 -107 139 -194 206 -231 103 -56 121 -57 695 -57 352 0 545 4 580 11 133 29
227 108 327 278 59 101 190 326 241 416 10 17 59 102 110 190 111 192 127 227
141 314 17 115 -9 221 -88 352 -16 25 -78 133 -140 240 -347 603 -357 618
-457 678 -98 59 -164 71 -383 71 l-192 0 31 -54z"/>
</g>
</svg>
